<svg width="472" height="437" viewBox="0 0 472 437" fill="none" xmlns="http://www.w3.org/2000/svg">
<path d="M457.7 223.8C450.2 223.8 444.2 217.8 444.2 210.3V87.5C444.2 54.1 417 27 383.7 27H87.5C54.1 27 27 54.2 27 87.5V212.3C27 219.8 21 225.8 13.5 225.8C6 225.8 0 219.8 0 212.3V87.5C0 39.2 39.3 0 87.5 0H383.7C432 0 471.2 39.3 471.2 87.5V210.3C471.2 217.7 465.2 223.8 457.7 223.8Z" fill="black"/>
<path d="M226.1 107.2C228.7 104.6 232.2 103.2 235.6 103.2C239 103.2 242.5 104.5 245.1 107.2L330.9 193C336.2 198.3 336.2 206.8 330.9 212.1C325.6 217.4 317.1 217.4 311.8 212.1L249.1 149.3V423.2C249.1 430.7 243.1 436.7 235.6 436.7C228.1 436.7 222.1 430.7 222.1 423.2V149.3L159.3 212.1C154 217.4 145.5 217.4 140.2 212.1C134.9 206.8 134.9 198.3 140.2 193L226.1 107.2Z" fill="black"/>
</svg>
